#usda 1.0 - Exported by Cygon 0.2.0.7i
(
    defaultPrim = "Root"
    upAxis = "Y"
    metersPerUnit = 0.01
)

def Xform "Root"
{
    def Mesh "Cube"
    {
        float3[] extent = [(-50, -50, -50), (50, 50, 50)]
        int[] faceVertexCounts = [4, 4, 4, 4, 4, 4]
        int[] faceVertexIndices = [0, 1, 2, 3, 4, 5, 6, 7, 0, 4, 7, 3, 1, 5, 6, 2, 0, 1, 5, 4, 3, 2, 6, 7]
        point3f[] points = [
            (-50, -50, -50), (50, -50, -50), (50, 50, -50), (-50, 50, -50),
            (-50, -50,  50), (50, -50,  50), (50, 50,  50), (-50, 50,  50)
        ]
        normal3f[] normals = [
            (0, 0, -1), (0, 0, -1), (0, 0, -1), (0, 0, -1),
            (0, 0,  1), (0, 0,  1), (0, 0,  1), (0, 0,  1),
            (-1, 0, 0), (-1, 0, 0), (-1, 0, 0), (-1, 0, 0),
            ( 1, 0, 0), ( 1, 0, 0), ( 1, 0, 0), ( 1, 0, 0),
            (0, -1, 0), (0, -1, 0), (0, -1, 0), (0, -1, 0),
            (0,  1, 0), (0,  1, 0), (0,  1, 0), (0,  1, 0)
        ]
    }
}
